<?xml version="1.0"?>
<svg xmlns="http://www.w3.org/2000/svg" xmlns:xlink="http://www.w3.org/1999/xlink" version="1.1" id="Capa_1" x="0px" y="0px" viewBox="0 0 512.003 512.003" style="enable-background:new 0 0 512.003 512.003;" xml:space="preserve" width="512px" height="512px" class=""><g><path style="fill:#166CBF;" d="M466.825,376.471c-16.64,0-30.118-13.478-30.118-30.118V231.304  c-0.994-85.956-65.295-157.982-150.588-168.659V30.118C286.119,13.478,272.642,0,256.001,0c-16.64,0-30.118,13.478-30.118,30.118  v32.075C139.491,74.677,75.371,148.691,75.296,235.972v110.381c0,16.64-13.478,30.118-30.118,30.118S15.06,389.948,15.06,406.588  c0,16.64,13.478,30.118,30.118,30.118h421.647c16.64,0,30.118-13.478,30.118-30.118  C496.943,389.948,483.465,376.471,466.825,376.471z M130.411,376.471c3.403-9.683,5.135-19.863,5.12-30.118V235.972  c0-63.789,51.712-115.501,115.501-115.501l0,0h4.969c67.765,0,120.471,48.64,120.471,110.833v115.049  c-0.015,10.255,1.717,20.435,5.12,30.118H130.411z" data-original="#166CBF" class=""/><path style="fill:#2A7CF7" d="M256.001,512c-16.64,0-30.118-13.478-30.118-30.118c0-7.951,3.132-15.586,8.734-21.233  c1.416-1.416,2.982-2.68,4.668-3.765c1.626-1.099,3.343-2.048,5.12-2.861c1.837-0.768,3.765-1.31,5.722-1.656  c3.885-0.753,7.861-0.753,11.746,0c1.958,0.346,3.885,0.888,5.722,1.656c1.777,0.813,3.494,1.762,5.12,2.861  c1.672,1.039,3.192,2.304,4.518,3.765c5.662,5.617,8.855,13.252,8.885,21.233c0.015,3.976-0.753,7.921-2.259,11.595  c-1.521,3.644-3.765,6.927-6.626,9.638c-1.325,1.461-2.846,2.726-4.518,3.765c-1.581,1.16-3.298,2.123-5.12,2.861  c-1.837,0.768-3.75,1.325-5.722,1.656C259.947,511.834,257.974,512.03,256.001,512z" data-original="#1E90FF" class="active-path" data-old_color="#2a7cf7"/></g> </svg>
