<?xml version="1.0"?>
<svg xmlns="http://www.w3.org/2000/svg" xmlns:xlink="http://www.w3.org/1999/xlink" version="1.1" id="Capa_1" x="0px" y="0px" viewBox="0 0 512 512" style="enable-background:new 0 0 512 512;" xml:space="preserve" width="512px" height="512px" class=""><g><g>
	<path style="fill:#2A7CF7" d="M105.931,512c-9.751,0-17.655-7.905-17.655-17.655V17.655C88.276,7.904,96.18,0,105.931,0h300.138   c9.751,0,17.655,7.904,17.655,17.655v476.69c0,9.751-7.904,17.655-17.655,17.655H105.931z" data-original="#8697CB" class="" data-old_color="#2a7cf7"/>
	<g>
		<path style="fill:#A2D2FF" d="M132.414,88.276h247.172c4.875,0,8.828-3.952,8.828-8.828c0-4.875-3.952-8.828-8.828-8.828H132.414    c-4.875,0-8.828,3.952-8.828,8.828C123.586,84.324,127.538,88.276,132.414,88.276z" data-original="#2C3E50" class="active-path" data-old_color="#9FCFFC"/>
		<path style="fill:#A2D2FF" d="M132.414,132.414h211.862c4.875,0,8.828-3.952,8.828-8.828c0-4.875-3.952-8.828-8.828-8.828    H132.414c-4.875,0-8.828,3.952-8.828,8.828C123.586,128.462,127.538,132.414,132.414,132.414z" data-original="#2C3E50" class="active-path" data-old_color="#9FCFFC"/>
		<path style="fill:#A2D2FF" d="M379.586,158.897H132.414c-4.875,0-8.828,3.952-8.828,8.828s3.952,8.828,8.828,8.828h247.172    c4.875,0,8.828-3.952,8.828-8.828S384.462,158.897,379.586,158.897z" data-original="#2C3E50" class="active-path" data-old_color="#9FCFFC"/>
		<path style="fill:#A2D2FF" d="M132.414,220.69h211.862c4.875,0,8.828-3.952,8.828-8.828c0-4.875-3.952-8.828-8.828-8.828H132.414    c-4.875,0-8.828,3.952-8.828,8.828C123.586,216.737,127.538,220.69,132.414,220.69z" data-original="#2C3E50" class="active-path" data-old_color="#9FCFFC"/>
		<path style="fill:#A2D2FF" d="M379.586,247.172H132.414c-4.875,0-8.828,3.952-8.828,8.828s3.952,8.828,8.828,8.828h247.172    c4.875,0,8.828-3.952,8.828-8.828S384.462,247.172,379.586,247.172z" data-original="#2C3E50" class="active-path" data-old_color="#9FCFFC"/>
		<path style="fill:#A2D2FF" d="M344.276,291.31H132.414c-4.875,0-8.828,3.952-8.828,8.828s3.952,8.828,8.828,8.828h211.862    c4.875,0,8.828-3.952,8.828-8.828S349.151,291.31,344.276,291.31z" data-original="#2C3E50" class="active-path" data-old_color="#9FCFFC"/>
	</g>
	<path style="fill:#FF5364" d="M326.621,381.219c-0.682,12.558-4.503,24.744-11.114,35.443c-2.334,4.195-5.107,8.131-8.271,11.741   c-14.868,15.798-32.164,29.119-51.235,39.459c-19.06-10.349-36.344-23.676-51.2-39.477c-3.165-3.61-5.937-7.546-8.271-11.741   c-6.62-10.69-10.454-22.87-11.149-35.425c-0.909-10.72,3.183-21.259,11.087-28.557c9.272-7.219,21.265-9.962,32.754-7.492   c11.489,2.47,21.294,9.9,26.78,20.292c5.48-10.389,15.278-17.82,26.76-20.297c11.482-2.477,23.471,0.255,32.747,7.462   C323.431,359.928,327.534,370.483,326.621,381.219z" data-original="#FF5364" class=""/>
</g></g> </svg>
